<?xml version="1.0" standalone="no"?><!DOCTYPE svg PUBLIC "-//W3C//DTD SVG 1.1//EN" "http://www.w3.org/Graphics/SVG/1.1/DTD/svg11.dtd"><svg t="1514300772124" class="icon" style="" viewBox="0 0 1024 1024" version="1.1" xmlns="http://www.w3.org/2000/svg" p-id="7604" xmlns:xlink="http://www.w3.org/1999/xlink" width="64" height="64"><defs><style type="text/css"></style></defs><path d="M198.952726 317.653687c27.637454-70.796416 85.602633-89.327468 135.169539-89.327468 74.693166 0 153.081491 58.488089 195.245799 152.177911 43.236733-95.071286 123.241882-152.177911 195.317431-152.177911 49.560766 0 94.022397 21.214161 118.851899 56.70242 29.526477 42.236963 39.138392 100.034321 4.01136 166.6536 33.825386-3.369747 65.673745-2.381234 89.99978-0.292665 23.13286-81.100086 15.115256-160.117744-25.427112-216.033242-44.763506-61.553914-110.641913-92.583628-187.323363-92.583628-72.592318 0-138.874931 34.69008-195.340967 97.546663-56.460919-62.856583-122.748648-97.546663-195.33585-97.546663-84.294848 0-167.007665 44.304042-204.449415 123.029034 6.604418 15.95846 38.043455 35.196617 69.280899 51.851949z m520.635681 243.772002c1.201361-18.529005 1.201361-33.601282 12.218276-48.088228-113.944122 61.071937-122.051777 192.039781-189.131545 279.973506-16.630772-106.08206-77.102029-218.901569-124.863822-280.266171-34.420951-44.225247-74.278727-89.909729-102.915951-133.236514 0.802272 18.845207-4.004197 40.74396-3.308349 59.588143-47.257304-65.838497-252.705466-103.808274-223.068472-196.009186-44.651966 64.349587-25.728988 227.431849 17.929348 294.745955 66.276473 102.106516 195.031928 129.082914 287.24512 198.868303 45.652759 34.499745 94.514607 77.916581 135.765103 141.749398 66.573231-99.725282 137.055492-143.344732 195.835224-184.874591 41.238216-29.244045 73.581856-53.343929 109.22668-89.730651 41.059138-41.934065 57.768705-107.250676 125.465527-113.607454-35.755342-5.142114-202.549136-23.493064-240.397139 70.88749z" p-id="7605" fill="#36ab60"></path></svg>